# xmcd
#
# Track frame offsets:
# 150
# 14159
# 32735
# 50544
# 64871
# 78551
# 92579
# 118738
# 129746
# 146565
# 162127
# 176986
# 196759
# 214486
# 236675
# 251988
# 266391
# 294901
# 311608
#
# Disc length: 4346 seconds
#
# Revision: 1
# Processed by: cddbd v1.5.2PL0 Copyright (c) Steve Scherf et al.
# Submitted via: Easy CD Ripper 2.3.10
#
DISCID=2110f813
DTITLE=Bobby Charles - Last Train To Memphis
DYEAR=2003
DGENRE=Blues
TTITLE0=Not Ready Yet - Bobby Charles
TTITLE1=The Jealous Kind - Bobby Charles
TTITLE2=I Want To Be The One - Bobby Charles
TTITLE3=Walking To New Orleans - Bobby Charles
TTITLE4=I Remember When - Bobby Charles
TTITLE5=Ambushin' Bastard - Bobby Charles
TTITLE6=I Don't See Mee - Bobby Charles
TTITLE7=Which You Were Here Right Now - Bobby Charles
TTITLE8=I Can't Quit You - Bobby Charles
TTITLE9=Secrets - Bobby Charles
TTITLE10=Angel Eyes - Bobby Charles
TTITLE11=But I Do - Bobby Charles
TTITLE12=Party Town - Bobby Charles
TTITLE13=I Don't Want To Know - Bobby Charles
TTITLE14=Love In The Worst Degree - Bobby Charles
TTITLE15=Why Are People Like That? - Bobby Charles
TTITLE16=I Believe In Angels - Bobby Charles
TTITLE17=Les Champs Elysee - Bobby Charles
TTITLE18=Clean Water - Bobby Charles
EXTD=
EXTT0=
EXTT1=
EXTT2=
EXTT3=
EXTT4=
EXTT5=
EXTT6=
EXTT7=
EXTT8=
EXTT9=
EXTT10=
EXTT11=
EXTT12=
EXTT13=
EXTT14=
EXTT15=
EXTT16=
EXTT17=
EXTT18=
PLAYORDER=
